# xmcd CD database file
#
# Track frame offsets:
#	150
#	12282
#	25170
#	38974
#	51799
#	62543
#	73919
#	86019
#	104113
#	119073
#	131880
#	146737
#	162387
#	176522
#
# Disc length: 2533 seconds
#
# Revision: 0
# Processed by: cddbd v1.5.1PL2 Copyright (c) Steve Scherf et al.
# Submitted via: CDex 1.51
#
DISCID=d309e30e
DTITLE=Oscar Aleman - Pagina 12 Disco 2
DYEAR=1900
DGENRE=Jazz
TTITLE0=Rag de la calle 12
TTITLE1=Rio Swanee
TTITLE2=Ensayo a las tres
TTITLE3=Marechiare
TTITLE4=Ritmo loco
TTITLE5=Tengo Ritmo
TTITLE6=Minuet
TTITLE7=St Louis blues
TTITLE8=Te para dos
TTITLE9=Paso del tigre
TTITLE10=Candilejas
TTITLE11=Noche y dia
TTITLE12=Lavanderas de Portugal
TTITLE13=Tres monedas en la fuente
EXTD=
EXTT0=
EXTT1=
EXTT2=
EXTT3=
EXTT4=
EXTT5=
EXTT6=
EXTT7=
EXTT8=
EXTT9=
EXTT10=
EXTT11=
EXTT12=
EXTT13=
PLAYORDER=
